HIERARCHY
ROOT reference
{
  OFFSET 0 0 0
  CHANNELS 6 Xposition Yposition Zposition Zrotation Xrotation Yrotation
  JOINT Hips
  {
    OFFSET 11.155 81.6189 51.3133
    CHANNELS 6 Xposition Yposition Zposition Zrotation Xrotation Yrotation
    JOINT Spine
    {
      OFFSET 0 7.85829 0
      CHANNELS 6 Xposition Yposition Zposition Zrotation Xrotation Yrotation
      JOINT Spine1
      {
        OFFSET 0 25.1384 0
        CHANNELS 6 Xposition Yposition Zposition Zrotation Xrotation Yrotation
        JOINT Neck
        {
          OFFSET 0 25.0351 2.27592
          CHANNELS 6 Xposition Yposition Zposition Zrotation Xrotation Yrotation
          JOINT Head
          {
            OFFSET 0 13.4166 -1.91665
            CHANNELS 6 Xposition Yposition Zposition Zrotation Xrotation Yrotation
            End Site
            {
              OFFSET 0 23.9582 0
            }
          }
        }
        JOINT LeftShoulder
        {
          OFFSET 3.81534 24.0346 -0.234509
          CHANNELS 6 Xposition Yposition Zposition Zrotation Xrotation Yrotation
          JOINT LeftArm
          {
            OFFSET 8.62273 0 0
            CHANNELS 6 Xposition Yposition Zposition Zrotation Xrotation Yrotation
            JOINT LeftForeArm
            {
              OFFSET 31.7064 0 0
              CHANNELS 6 Xposition Yposition Zposition Zrotation Xrotation Yrotation
              JOINT LeftHand
              {
                OFFSET 23.7731 0 0
                CHANNELS 6 Xposition Yposition Zposition Zrotation Xrotation Yrotation
                End Site
                {
                  OFFSET 14.3749 0 0
                }
              }
            }
          }
        }
        JOINT RightShoulder
        {
          OFFSET -3.83608 24.0346 -0.234509
          CHANNELS 6 Xposition Yposition Zposition Zrotation Xrotation Yrotation
          JOINT RightArm
          {
            OFFSET -8.62273 0 0
            CHANNELS 6 Xposition Yposition Zposition Zrotation Xrotation Yrotation
            JOINT RightForeArm
            {
              OFFSET -31.7064 0 0
              CHANNELS 6 Xposition Yposition Zposition Zrotation Xrotation Yrotation
              JOINT RightHand
              {
                OFFSET -23.7731 0 0
                CHANNELS 6 Xposition Yposition Zposition Zrotation Xrotation Yrotation
                End Site
                {
                  OFFSET -14.3749 0 0
                }
              }
            }
          }
        }
      }
    }
    JOINT LeftUpLeg
    {
      OFFSET 9.58328 0 0
      CHANNELS 6 Xposition Yposition Zposition Zrotation Xrotation Yrotation
      JOINT LeftLeg
      {
        OFFSET 0 -36.4535 0
        CHANNELS 6 Xposition Yposition Zposition Zrotation Xrotation Yrotation
        JOINT LeftFoot
        {
          OFFSET 0 -41.4659 0
          CHANNELS 6 Xposition Yposition Zposition Zrotation Xrotation Yrotation
          JOINT LeftToeBase
          {
            OFFSET 0 -6.22913 14.3749
            CHANNELS 6 Xposition Yposition Zposition Zrotation Xrotation Yrotation
            End Site
            {
              OFFSET 0 0 3.83331
            }
          }
        }
      }
    }
    JOINT RightUpLeg
    {
      OFFSET -9.58328 0 0
      CHANNELS 6 Xposition Yposition Zposition Zrotation Xrotation Yrotation
      JOINT RightLeg
      {
        OFFSET 0 -36.4535 0
        CHANNELS 6 Xposition Yposition Zposition Zrotation Xrotation Yrotation
        JOINT RightFoot
        {
          OFFSET 0 -41.4659 0
          CHANNELS 6 Xposition Yposition Zposition Zrotation Xrotation Yrotation
          JOINT RightToeBase
          {
            OFFSET 0 -6.22913 14.3749
            CHANNELS 6 Xposition Yposition Zposition Zrotation Xrotation Yrotation
            End Site
            {
              OFFSET 0 0 3.83331
            }
          }
        }
      }
    }
  }
}
MOTION
Frames:	7
Frame Time:	0.004
0 0 0 0 0 -0 3.42994 78.4634 -189.102 -3.01474 -6.23862 0.863082 0 7.85829 0 0.099922 0.54713 -2.58354 0 25.1384 0 -1.06715 10.9503 -2.48076 0 25.0351 2.27592 -1.50964 28.275 -2.3028 0 13.4166 -1.91665 -0.41387 -3.12302 -2.64416 3.81534 24.0346 -0.234509 -20.2262 23.0277 11.6698 8.62273 -1.42109e-014 0 -30.9256 32.5196 -24.9168 31.7064 0 0 1.43648 -17.0324 -92.9734 23.7731 1.42109e-014 0 10.8229 -16.3591 -8.53715 -3.83608 24.0346 -0.234509 20.6092 33.3934 -5.47281 -8.62273 0 -2.84217e-014 15.8758 40.6661 36.035 -31.7064 2.84217e-014 0 -22.4141 -44.0872 100.233 -23.7731 -7.10543e-015 2.84217e-014 -8.63022 -20.6581 -5.33035 9.58328 1.42109e-014 0 4.71893 14.9362 1.23818 -3.55271e-015 -36.4535 2.84217e-014 -9.56779 1.2839 0.935138 3.55271e-015 -41.4659 0 6.03852 -15.659 6.61237 0 -6.22913 14.3749 7.95139e-016 7.95139e-016 -0 -9.58328 1.42109e-014 0 -6.64319 -45.1142 -2.10166 0 -36.4535 7.10543e-015 110.342 74.0082 -106.179 0 -41.4659 0 -3.04542 -22.7789 -12.5553 0 -6.22913 14.3749 -1.59028e-015 6.36111e-015 -0 
0 0 0 0 0 -0 3.40896 78.5051 -189.018 -3.13722 -6.30228 0.874622 4.44089e-016 7.85829 0 0.0824 0.694413 -2.65573 0 25.1384 2.84217e-014 -0.829869 11.0366 -2.57508 -3.55271e-015 25.0351 2.27592 -1.61638 28.2538 -2.28089 0 13.4166 -1.91665 -0.438303 -3.24338 -2.63813 3.81534 24.0346 -0.234509 -20.223 22.9895 11.4622 8.62273 0 -2.84217e-014 -30.7549 32.7361 -24.8343 31.7064 0 0 1.37052 -17.2339 -92.9933 23.7731 7.10543e-015 -1.42109e-014 10.796 -16.6316 -8.60281 -3.83608 24.0346 -0.234509 20.4423 33.304 -5.40018 -8.62273 -1.42109e-014 -2.84217e-014 15.7736 40.4695 36.0699 -31.7064 0 0 -22.17 -44.1805 101.159 -23.7731 7.10543e-015 -2.84217e-014 -8.59469 -20.6503 -5.18978 9.58328 -2.84217e-014 -2.84217e-014 4.85645 15.0653 1.26952 0 -36.4535 0 -9.53379 1.26591 0.948288 0 -41.4659 2.84217e-014 5.8498 -15.5983 6.44388 -7.10543e-015 -6.22913 14.3749 5.96354e-016 7.95139e-016 -1.59028e-015 -9.58328 -1.42109e-014 0 -6.80093 -46.0072 -2.23746 0 -36.4535 1.42109e-014 113.096 73.4922 -108.954 3.55271e-015 -41.4659 0 -3.20444 -22.8833 -12.3584 0 -6.22913 14.3749 -7.95139e-016 6.36111e-015 -3.18055e-015 
0 0 0 0 0 -0 3.38326 78.5491 -188.913 -3.27367 -6.3988 0.909913 0 7.85829 0 0.155075 0.920776 -2.75865 8.88178e-016 25.1384 -2.84217e-014 -0.752783 11.0133 -2.68486 0 25.0351 2.27592 -1.66026 28.2615 -2.26571 3.55271e-015 13.4166 -1.91665 -0.429883 -3.34521 -2.62653 3.81534 24.0346 -0.234509 -20.1224 23.0586 11.4062 8.62273 1.42109e-014 -2.84217e-014 -30.654 32.7909 -24.8509 31.7064 0 2.84217e-014 1.24919 -17.2573 -93.0455 23.7731 0 1.42109e-014 10.7719 -16.7784 -8.64579 -3.83608 24.0346 -0.234509 20.3388 33.2334 -5.30882 -8.62273 0 5.68434e-014 15.6156 40.5203 36.1431 -31.7064 -2.84217e-014 0 -22.1359 -44.5839 101.901 -23.7731 -2.13163e-014 -2.84217e-014 -8.36421 -20.8778 -5.08626 9.58328 0 -2.84217e-014 5.01788 15.2607 1.32184 -3.55271e-015 -36.4535 0 -9.49729 1.21187 0.95561 -3.55271e-015 -41.4659 2.84217e-014 5.51462 -15.58 6.29176 0 -6.22913 14.3749 1.98785e-016 -7.95139e-016 -1.59028e-015 -9.58328 0 0 -6.97437 -46.854 -2.38408 0 -36.4535 0 115.631 72.9644 -111.386 -3.55271e-015 -41.4659 0 -2.84239 -23.0176 -11.9284 7.10543e-015 -6.22913 14.3749 1.59028e-015 -6.36111e-015 3.18055e-015 
0 0 0 0 0 -0 3.33608 78.5869 -188.782 -3.45235 -6.5847 0.952666 4.44089e-016 7.85829 -2.84217e-014 0.325275 1.20131 -2.85048 8.88178e-016 25.1384 -2.84217e-014 -0.855559 11.0005 -2.76469 0 25.0351 2.27592 -1.51302 28.3493 -2.25069 0 13.4166 -1.91665 -0.460105 -3.45484 -2.60054 3.81534 24.0346 -0.234509 -19.884 23.1237 11.2281 8.62273 0 -2.84217e-014 -30.6626 32.8101 -24.7134 31.7064 2.84217e-014 0 1.16176 -17.2378 -93.0908 23.7731 -7.10543e-015 -1.42109e-014 10.8249 -16.8486 -8.62937 -3.83608 24.0346 -0.234509 20.456 33.1541 -5.22816 -8.62273 0 0 15.4972 40.3864 36.0339 -31.7064 0 2.84217e-014 -21.8165 -44.6758 102.88 -23.7731 -7.10543e-015 -2.84217e-014 -8.55916 -20.9126 -5.17862 9.58328 0 0 5.24222 15.6842 1.50747 0 -36.4535 0 -9.45218 0.943003 0.774395 0 -41.4659 0 5.24203 -15.4905 6.13054 0 -6.22913 14.3749 -1.98785e-016 1.59028e-015 1.59028e-015 -9.58328 0 -2.84217e-014 -7.10859 -47.5694 -2.42457 0 -36.4535 0 117.757 72.2764 -113.336 0 -41.4659 0 -2.8947 -23.0756 -11.8871 0 -6.22913 14.3749 -7.95139e-016 -3.18055e-015 3.18055e-015 
0 0 0 0 0 -0 3.29666 78.6248 -188.672 -3.62371 -6.74345 0.989621 4.44089e-016 7.85829 0 0.402881 1.48968 -2.94838 8.88178e-016 25.1384 0 -0.740149 10.9892 -2.87196 0 25.0351 2.27592 -1.53542 28.3167 -2.1885 3.55271e-015 13.4166 -1.91665 -0.49821 -3.45253 -2.5445 3.81534 24.0346 -0.234509 -19.7873 23.1035 11.0891 8.62273 1.42109e-014 0 -30.6546 32.8516 -24.5806 31.7064 2.84217e-014 0 1.08585 -17.1955 -93.0978 23.7731 0 -1.42109e-014 10.9183 -16.8855 -8.58667 -3.83608 24.0346 -0.234509 20.3636 33.1241 -5.15652 -8.62273 -1.42109e-014 0 15.3992 40.222 36.0492 -31.7064 -2.84217e-014 0 -21.4803 -44.8019 103.818 -23.7731 7.10543e-015 0 -8.52091 -21.0567 -5.15069 9.58328 -2.84217e-014 0 5.4693 15.9241 1.60716 -3.55271e-015 -36.4535 0 -9.448 0.931584 0.721837 3.55271e-015 -41.4659 0 4.9516 -15.4979 5.98201 0 -6.22913 14.3749 3.97569e-016 7.95139e-016 -0 -9.58328 -1.42109e-014 0 -7.21651 -48.3259 -2.58134 -3.55271e-015 -36.4535 7.10543e-015 119.712 71.7364 -115.329 -3.55271e-015 -41.4659 0 -3.0988 -23.171 -11.6458 -7.10543e-015 -6.22913 14.3749 7.95139e-016 -3.18055e-015 -3.18055e-015 
0 0 0 0 0 -0 3.27405 78.6686 -188.563 -3.74638 -6.83444 1.04344 4.44089e-016 7.85829 2.84217e-014 0.465051 1.69161 -3.04948 0 25.1384 -2.84217e-014 -0.65739 10.9986 -2.97933 -3.55271e-015 25.0351 2.27592 -1.55327 28.3341 -2.16024 0 13.4166 -1.91665 -0.547881 -3.55764 -2.52653 3.81534 24.0346 -0.234509 -19.5975 23.1521 10.9423 8.62273 0 0 -30.7257 32.8509 -24.51 31.7064 0 0 1.1131 -17.1617 -92.9904 23.7731 0 1.42109e-014 10.799 -16.8199 -8.61225 -3.83608 24.0346 -0.234509 20.2917 33.0755 -5.0828 -8.62273 0 0 15.3255 40.0448 36.0209 -31.7064 0 0 -21.1831 -44.8979 104.743 -23.7731 -7.10543e-015 0 -8.51354 -21.1182 -5.1402 9.58328 -1.42109e-014 0 5.60971 16.0888 1.65374 0 -36.4535 0 -9.392 0.926814 0.633741 0 -41.4659 2.84217e-014 4.53658 -15.4481 5.90485 0 -6.22913 14.3749 1.98785e-016 7.95139e-016 4.77083e-015 -9.58328 1.42109e-014 0 -7.4494 -49.1477 -2.79303 0 -36.4535 7.10543e-015 121.518 71.2074 -117.16 0 -41.4659 0 -3.21548 -23.2224 -11.3878 0 -6.22913 14.3749 7.95139e-016 0 6.36111e-015 
0 0 0 0 0 -0 3.24577 78.7116 -188.455 -3.88278 -6.91055 1.09344 4.44089e-016 7.85829 -2.84217e-014 0.572289 1.86503 -3.17059 -8.88178e-016 25.1384 2.84217e-014 -0.645775 11.039 -3.09886 7.10543e-015 25.0351 2.27592 -1.60675 28.3028 -2.10794 0 13.4166 -1.91665 -0.526521 -3.59821 -2.47441 3.81534 24.0346 -0.234509 -19.4958 23.1691 10.8941 8.62273 0 0 -30.6638 32.9175 -24.4597 31.7064 0 0 1.18534 -17.2332 -92.8846 23.7731 0 1.42109e-014 10.7141 -16.8215 -8.6851 -3.83608 24.0346 -0.234509 20.2041 33.0266 -4.94064 -8.62273 0 2.84217e-014 15.2361 39.9365 36.0209 -31.7064 0 0 -20.8846 -45.0399 105.634 -23.7731 7.10543e-015 0 -8.69239 -21.244 -5.2742 9.58328 0 -2.84217e-014 5.78541 16.243 1.69895 0 -36.4535 2.84217e-014 -9.3648 0.882267 0.79685 3.55271e-015 -41.4659 0 4.24303 -15.4979 5.61129 7.10543e-015 -6.22913 14.3749 3.97569e-016 0 -3.18055e-015 -9.58328 -1.42109e-014 0 -7.69128 -49.9662 -2.92344 0 -36.4535 1.42109e-014 122.98 70.5958 -118.477 3.55271e-015 -41.4659 0 -3.05843 -23.3223 -11.1111 0 -6.22913 14.3749 7.95139e-016 -3.18055e-015 -0 
